<mxfile host="65bd71144e">
    <diagram id="Nh9DbsmlWs0bwRpxvXcd" name="User Information">
        <mxGraphModel dx="1198" dy="1309" grid="1" gridSize="10" guides="0" tooltips="1" connect="1" arrows="1" fold="1" page="1" pageScale="1" pageWidth="1100" pageHeight="850" background="#ffffff" math="0" shadow="0">
            <root>
                <mxCell id="0"/>
                <mxCell id="1" parent="0"/>
                <mxCell id="106" value="" style="rounded=0;whiteSpace=wrap;html=1;" parent="1" vertex="1">
                    <mxGeometry x="120" y="-80" width="610" height="1780" as="geometry"/>
                </mxCell>
                <mxCell id="62" style="edgeStyle=none;html=1;exitX=1;exitY=0.3333333333333333;exitDx=0;exitDy=0;exitPerimeter=0;" parent="1" source="7" edge="1">
                    <mxGeometry relative="1" as="geometry">
                        <mxPoint x="70.11111111111109" y="600.1111111111111" as="targetPoint"/>
                    </mxGeometry>
                </mxCell>
                <mxCell id="7" value="Student &amp;amp; &lt;br&gt;Lecturer" style="shape=umlActor;verticalLabelPosition=bottom;verticalAlign=top;html=1;outlineConnect=0;" parent="1" vertex="1">
                    <mxGeometry x="40" y="580" width="30" height="60" as="geometry"/>
                </mxCell>
                <mxCell id="10" value="SRC" style="shape=umlActor;verticalLabelPosition=bottom;verticalAlign=top;html=1;outlineConnect=0;" parent="1" vertex="1">
                    <mxGeometry x="1010" y="990" width="30" height="60" as="geometry"/>
                </mxCell>
                <mxCell id="11" value="Admin" style="shape=umlActor;verticalLabelPosition=bottom;verticalAlign=top;html=1;outlineConnect=0;" parent="1" vertex="1">
                    <mxGeometry x="970" y="710" width="30" height="60" as="geometry"/>
                </mxCell>
                <mxCell id="14" value="" style="rounded=0;whiteSpace=wrap;html=1;fillColor=#FFCCCC;" parent="1" vertex="1">
                    <mxGeometry x="220" y="50" width="340" height="192.5" as="geometry"/>
                </mxCell>
                <mxCell id="15" value="Registration and Authentication Module" style="rounded=0;whiteSpace=wrap;html=1;" parent="1" vertex="1">
                    <mxGeometry x="220" y="30" width="230" height="20" as="geometry"/>
                </mxCell>
                <mxCell id="16" value="UC001: Sign Up&lt;br&gt;(UTM Email)" style="ellipse;whiteSpace=wrap;html=1;" parent="1" vertex="1">
                    <mxGeometry x="235" y="60" width="110" height="60" as="geometry"/>
                </mxCell>
                <mxCell id="LPGJfSuWznseCfs-JJjP-116" style="edgeStyle=none;html=1;exitX=0;exitY=0.5;exitDx=0;exitDy=0;entryX=0.898;entryY=0.788;entryDx=0;entryDy=0;entryPerimeter=0;dashed=1;" parent="1" source="3bklzfCK_-_vBuCAfFPz-19" target="16" edge="1">
                    <mxGeometry relative="1" as="geometry"/>
                </mxCell>
                <mxCell id="3bklzfCK_-_vBuCAfFPz-19" value="UC002: Email verification" style="ellipse;whiteSpace=wrap;html=1;" parent="1" vertex="1">
                    <mxGeometry x="437.5" y="107.5" width="110" height="50" as="geometry"/>
                </mxCell>
                <mxCell id="LPGJfSuWznseCfs-JJjP-118" style="edgeStyle=none;html=1;exitX=1;exitY=0.5;exitDx=0;exitDy=0;entryX=0;entryY=0.5;entryDx=0;entryDy=0;dashed=1;" parent="1" source="3bklzfCK_-_vBuCAfFPz-20" target="tRfl53h29Oq87ieM9Fut-25" edge="1">
                    <mxGeometry relative="1" as="geometry"/>
                </mxCell>
                <mxCell id="3bklzfCK_-_vBuCAfFPz-20" value="UC003: Reset password" style="ellipse;whiteSpace=wrap;html=1;" parent="1" vertex="1">
                    <mxGeometry x="245" y="170" width="100" height="55" as="geometry"/>
                </mxCell>
                <mxCell id="tRfl53h29Oq87ieM9Fut-25" value="UC004: Login" style="ellipse;whiteSpace=wrap;html=1;" parent="1" vertex="1">
                    <mxGeometry x="447.5" y="185" width="90" height="40" as="geometry"/>
                </mxCell>
                <mxCell id="tRfl53h29Oq87ieM9Fut-37" value="" style="rounded=0;whiteSpace=wrap;html=1;fillColor=#FFCCCC;" parent="1" vertex="1">
                    <mxGeometry x="225" y="720" width="335" height="160" as="geometry"/>
                </mxCell>
                <mxCell id="17" value="Admin and Reporting Module" style="rounded=0;whiteSpace=wrap;html=1;" parent="1" vertex="1">
                    <mxGeometry x="225" y="700" width="170" height="20" as="geometry"/>
                </mxCell>
                <mxCell id="18" value="UC011: Generate Report" style="ellipse;whiteSpace=wrap;html=1;" parent="1" vertex="1">
                    <mxGeometry x="230" y="730" width="120" height="50" as="geometry"/>
                </mxCell>
                <mxCell id="LPGJfSuWznseCfs-JJjP-121" style="edgeStyle=none;html=1;exitX=0;exitY=0.5;exitDx=0;exitDy=0;dashed=1;startArrow=none;" parent="1" source="27" target="18" edge="1">
                    <mxGeometry relative="1" as="geometry"/>
                </mxCell>
                <mxCell id="19" value="UC012: View &lt;br&gt;Report" style="ellipse;whiteSpace=wrap;html=1;" parent="1" vertex="1">
                    <mxGeometry x="440" y="730" width="100" height="45" as="geometry"/>
                </mxCell>
                <mxCell id="kwJNHoxk6TTBNaTpvNkK-22" value="" style="rounded=0;whiteSpace=wrap;html=1;fillColor=#FFCCCC;" parent="1" vertex="1">
                    <mxGeometry x="225" y="1147.5" width="335" height="162.5" as="geometry"/>
                </mxCell>
                <mxCell id="kwJNHoxk6TTBNaTpvNkK-23" value="&lt;span style=&quot;color: rgb(0, 0, 0); font-family: Helvetica; font-size: 12px; font-style: normal; font-variant-ligatures: normal; font-variant-caps: normal; font-weight: 400; letter-spacing: normal; orphans: 2; text-align: center; text-indent: 0px; text-transform: none; widows: 2; word-spacing: 0px; -webkit-text-stroke-width: 0px; background-color: rgb(251, 251, 251); text-decoration-thickness: initial; text-decoration-style: initial; text-decoration-color: initial; float: none; display: inline !important;&quot;&gt;Feedback Module&lt;/span&gt;" style="rounded=0;whiteSpace=wrap;html=1;" parent="1" vertex="1">
                    <mxGeometry x="225" y="1130" width="110" height="17.5" as="geometry"/>
                </mxCell>
                <mxCell id="kwJNHoxk6TTBNaTpvNkK-27" value="&lt;span style=&quot;color: rgb(0, 0, 0); font-family: Helvetica; font-size: 12px; font-style: normal; font-variant-ligatures: normal; font-variant-caps: normal; font-weight: 400; letter-spacing: normal; orphans: 2; text-align: center; text-indent: 0px; text-transform: none; widows: 2; word-spacing: 0px; -webkit-text-stroke-width: 0px; background-color: rgb(251, 251, 251); text-decoration-thickness: initial; text-decoration-style: initial; text-decoration-color: initial; float: none; display: inline !important;&quot;&gt;UC018: View feedback&lt;/span&gt;" style="ellipse;whiteSpace=wrap;html=1;" parent="1" vertex="1">
                    <mxGeometry x="400" y="1160" width="120" height="50" as="geometry"/>
                </mxCell>
                <mxCell id="kwJNHoxk6TTBNaTpvNkK-29" value="&lt;span style=&quot;color: rgb(0, 0, 0); font-family: Helvetica; font-size: 12px; font-style: normal; font-variant-ligatures: normal; font-variant-caps: normal; font-weight: 400; letter-spacing: normal; orphans: 2; text-align: center; text-indent: 0px; text-transform: none; widows: 2; word-spacing: 0px; -webkit-text-stroke-width: 0px; background-color: rgb(251, 251, 251); text-decoration-thickness: initial; text-decoration-style: initial; text-decoration-color: initial; float: none; display: inline !important;&quot;&gt;UC020: Manage feedback&lt;/span&gt;" style="ellipse;whiteSpace=wrap;html=1;" parent="1" vertex="1">
                    <mxGeometry x="400" y="1250" width="120" height="50" as="geometry"/>
                </mxCell>
                <mxCell id="UXrXXBjXpSe41hVyBI7v-33" value="UC013: Manage&lt;br&gt;&amp;nbsp;user account" style="ellipse;whiteSpace=wrap;html=1;" parent="1" vertex="1">
                    <mxGeometry x="230" y="815" width="117.5" height="50" as="geometry"/>
                </mxCell>
                <mxCell id="cIsgNL2QNmCeuLE6zkZ4-28" value="" style="rounded=0;whiteSpace=wrap;html=1;fillColor=#FFCCCC;strokeColor=#000000;" parent="1" vertex="1">
                    <mxGeometry x="225" y="540" width="335" height="90" as="geometry"/>
                </mxCell>
                <mxCell id="cIsgNL2QNmCeuLE6zkZ4-29" value="&lt;span style=&quot;color: rgb(0, 0, 0); font-family: Helvetica; font-size: 12px; font-style: normal; font-variant-ligatures: normal; font-variant-caps: normal; font-weight: 400; letter-spacing: normal; orphans: 2; text-align: center; text-indent: 0px; text-transform: none; widows: 2; word-spacing: 0px; -webkit-text-stroke-width: 0px; background-color: rgb(251, 251, 251); text-decoration-thickness: initial; text-decoration-style: initial; text-decoration-color: initial; float: none; display: inline !important;&quot;&gt;Processing Module&lt;/span&gt;" style="rounded=0;whiteSpace=wrap;html=1;" parent="1" vertex="1">
                    <mxGeometry x="225" y="520" width="115" height="20" as="geometry"/>
                </mxCell>
                <mxCell id="cIsgNL2QNmCeuLE6zkZ4-35" value="&lt;span style=&quot;color: rgb(0, 0, 0); font-family: Helvetica; font-size: 12px; font-style: normal; font-variant-ligatures: normal; font-variant-caps: normal; font-weight: 400; letter-spacing: normal; orphans: 2; text-align: center; text-indent: 0px; text-transform: none; widows: 2; word-spacing: 0px; -webkit-text-stroke-width: 0px; background-color: rgb(251, 251, 251); text-decoration-thickness: initial; text-decoration-style: initial; text-decoration-color: initial; float: none; display: inline !important;&quot;&gt;UC010: Posts fillteration&lt;/span&gt;" style="ellipse;whiteSpace=wrap;html=1;" parent="1" vertex="1">
                    <mxGeometry x="410" y="550" width="107.5" height="40" as="geometry"/>
                </mxCell>
                <mxCell id="cIsgNL2QNmCeuLE6zkZ4-42" value="" style="rounded=0;whiteSpace=wrap;html=1;fillColor=#FFCCCC;" parent="1" vertex="1">
                    <mxGeometry x="225" y="947.5" width="335" height="152.5" as="geometry"/>
                </mxCell>
                <mxCell id="cIsgNL2QNmCeuLE6zkZ4-43" value="&lt;span style=&quot;color: rgb(0, 0, 0); font-family: Helvetica; font-size: 12px; font-style: normal; font-variant-ligatures: normal; font-variant-caps: normal; font-weight: 400; letter-spacing: normal; orphans: 2; text-align: center; text-indent: 0px; text-transform: none; widows: 2; word-spacing: 0px; -webkit-text-stroke-width: 0px; background-color: rgb(251, 251, 251); text-decoration-thickness: initial; text-decoration-style: initial; text-decoration-color: initial; float: none; display: inline !important;&quot;&gt;Personalised Dashboard Module&lt;/span&gt;" style="rounded=0;whiteSpace=wrap;html=1;" parent="1" vertex="1">
                    <mxGeometry x="225" y="930" width="200" height="17.5" as="geometry"/>
                </mxCell>
                <mxCell id="LPGJfSuWznseCfs-JJjP-139" style="edgeStyle=none;html=1;exitX=1;exitY=1;exitDx=0;exitDy=0;entryX=0;entryY=0;entryDx=0;entryDy=0;dashed=1;" parent="1" source="cIsgNL2QNmCeuLE6zkZ4-49" target="LPGJfSuWznseCfs-JJjP-101" edge="1">
                    <mxGeometry relative="1" as="geometry"/>
                </mxCell>
                <mxCell id="LPGJfSuWznseCfs-JJjP-144" style="edgeStyle=none;html=1;exitX=1;exitY=0;exitDx=0;exitDy=0;entryX=0;entryY=1;entryDx=0;entryDy=0;dashed=1;" parent="1" source="cIsgNL2QNmCeuLE6zkZ4-49" target="LPGJfSuWznseCfs-JJjP-102" edge="1">
                    <mxGeometry relative="1" as="geometry"/>
                </mxCell>
                <mxCell id="cIsgNL2QNmCeuLE6zkZ4-49" value="UC015: Make Post" style="ellipse;whiteSpace=wrap;html=1;" parent="1" vertex="1">
                    <mxGeometry x="235" y="998.75" width="120" height="35" as="geometry"/>
                </mxCell>
                <mxCell id="UXrXXBjXpSe41hVyBI7v-42" value="UC009: Validate feedback" style="ellipse;whiteSpace=wrap;html=1;" parent="1" vertex="1">
                    <mxGeometry x="260" y="570" width="115" height="45" as="geometry"/>
                </mxCell>
                <mxCell id="NdrQbTK8zsEzTxqzjizh-29" value="Anonymous Forum Module" style="rounded=0;whiteSpace=wrap;html=1;" parent="1" vertex="1">
                    <mxGeometry x="217.5" y="1360" width="160" height="20" as="geometry"/>
                </mxCell>
                <mxCell id="NdrQbTK8zsEzTxqzjizh-30" value="" style="rounded=0;whiteSpace=wrap;html=1;fillColor=#FFCCCC;" parent="1" vertex="1">
                    <mxGeometry x="217.5" y="1380" width="342.5" height="190" as="geometry"/>
                </mxCell>
                <mxCell id="NdrQbTK8zsEzTxqzjizh-31" value="UC021 - Create Forum" style="ellipse;whiteSpace=wrap;html=1;" parent="1" vertex="1">
                    <mxGeometry x="440" y="1410" width="115" height="50" as="geometry"/>
                </mxCell>
                <mxCell id="NdrQbTK8zsEzTxqzjizh-33" value="UC022-Forum Comments" style="ellipse;whiteSpace=wrap;html=1;" parent="1" vertex="1">
                    <mxGeometry x="430" y="1510" width="95" height="50" as="geometry"/>
                </mxCell>
                <mxCell id="LPGJfSuWznseCfs-JJjP-111" style="edgeStyle=none;html=1;exitX=0;exitY=0;exitDx=0;exitDy=0;entryX=1;entryY=1;entryDx=0;entryDy=0;dashed=1;startArrow=none;" parent="1" source="31" target="18" edge="1">
                    <mxGeometry relative="1" as="geometry"/>
                </mxCell>
                <mxCell id="30" value="UC014: Download Report" style="ellipse;whiteSpace=wrap;html=1;" parent="1" vertex="1">
                    <mxGeometry x="410" y="800" width="132.5" height="50" as="geometry"/>
                </mxCell>
                <mxCell id="LPGJfSuWznseCfs-JJjP-71" value="UC019: Submit &lt;br&gt;feedback" style="ellipse;whiteSpace=wrap;html=1;" parent="1" vertex="1">
                    <mxGeometry x="250" y="1200" width="110" height="57.5" as="geometry"/>
                </mxCell>
                <mxCell id="35" value="UC023- Edit Forum" style="ellipse;whiteSpace=wrap;html=1;" parent="1" vertex="1">
                    <mxGeometry x="232.5" y="1490" width="102.5" height="50" as="geometry"/>
                </mxCell>
                <mxCell id="41" value="" style="rounded=0;whiteSpace=wrap;html=1;fillColor=#FFCCCC;" parent="1" vertex="1">
                    <mxGeometry x="225" y="287.5" width="335" height="192.5" as="geometry"/>
                </mxCell>
                <mxCell id="42" value="User Information Module" style="rounded=0;whiteSpace=wrap;html=1;" parent="1" vertex="1">
                    <mxGeometry x="225" y="270" width="150" height="17.5" as="geometry"/>
                </mxCell>
                <mxCell id="43" value="UC005: Update Profile" style="ellipse;whiteSpace=wrap;html=1;" parent="1" vertex="1">
                    <mxGeometry x="250" y="300" width="120" height="50" as="geometry"/>
                </mxCell>
                <mxCell id="LPGJfSuWznseCfs-JJjP-119" style="edgeStyle=none;html=1;exitX=0.5;exitY=0;exitDx=0;exitDy=0;entryX=0.5;entryY=1;entryDx=0;entryDy=0;dashed=1;startArrow=none;" parent="1" source="46" target="43" edge="1">
                    <mxGeometry relative="1" as="geometry"/>
                </mxCell>
                <mxCell id="44" value="UC006: Delete Profile" style="ellipse;whiteSpace=wrap;html=1;" parent="1" vertex="1">
                    <mxGeometry x="260" y="417.5" width="100" height="45" as="geometry"/>
                </mxCell>
                <mxCell id="50" value="UC008: Update SRC &lt;br&gt;Info Board" style="ellipse;whiteSpace=wrap;html=1;" parent="1" vertex="1">
                    <mxGeometry x="400" y="410" width="145" height="55" as="geometry"/>
                </mxCell>
                <mxCell id="LPGJfSuWznseCfs-JJjP-101" value="UC017: Delete Post" style="ellipse;whiteSpace=wrap;html=1;" parent="1" vertex="1">
                    <mxGeometry x="430" y="1040" width="120" height="35" as="geometry"/>
                </mxCell>
                <mxCell id="LPGJfSuWznseCfs-JJjP-102" value="UC016: Edit Post" style="ellipse;whiteSpace=wrap;html=1;" parent="1" vertex="1">
                    <mxGeometry x="432.5" y="963.75" width="120" height="35" as="geometry"/>
                </mxCell>
                <mxCell id="LPGJfSuWznseCfs-JJjP-115" value="&amp;lt;include&amp;gt;" style="rounded=0;whiteSpace=wrap;html=1;fillColor=#CCCCCC;strokeColor=none;strokeWidth=0;" parent="1" vertex="1">
                    <mxGeometry x="355" y="107.5" width="60" height="20" as="geometry"/>
                </mxCell>
                <mxCell id="LPGJfSuWznseCfs-JJjP-117" value="&amp;lt;include&amp;gt;" style="rounded=0;whiteSpace=wrap;html=1;fillColor=#CCCCCC;strokeColor=none;strokeWidth=0;" parent="1" vertex="1">
                    <mxGeometry x="365" y="195" width="60" height="20" as="geometry"/>
                </mxCell>
                <mxCell id="75" style="edgeStyle=none;html=1;exitX=0.5;exitY=0;exitDx=0;exitDy=0;dashed=1;entryX=0.546;entryY=0.034;entryDx=0;entryDy=0;startArrow=none;entryPerimeter=0;" parent="1" source="LPGJfSuWznseCfs-JJjP-87" target="kwJNHoxk6TTBNaTpvNkK-29" edge="1">
                    <mxGeometry relative="1" as="geometry">
                        <mxPoint x="397.5" y="1262.5" as="sourcePoint"/>
                        <mxPoint x="293.78" y="1237.28" as="targetPoint"/>
                    </mxGeometry>
                </mxCell>
                <mxCell id="80" style="edgeStyle=none;html=1;exitX=0.5;exitY=0;exitDx=0;exitDy=0;entryX=0.5;entryY=1;entryDx=0;entryDy=0;dashed=1;" parent="1" source="3bklzfCK_-_vBuCAfFPz-20" target="16" edge="1">
                    <mxGeometry relative="1" as="geometry">
                        <mxPoint x="391.2199999999996" y="145.22" as="sourcePoint"/>
                        <mxPoint x="287.5000000000001" y="120.00000000000003" as="targetPoint"/>
                    </mxGeometry>
                </mxCell>
                <mxCell id="82" style="edgeStyle=none;html=1;exitX=0.5;exitY=0;exitDx=0;exitDy=0;entryX=0.5;entryY=1;entryDx=0;entryDy=0;dashed=1;" parent="1" edge="1">
                    <mxGeometry relative="1" as="geometry">
                        <mxPoint x="300" y="147.5" as="sourcePoint"/>
                        <mxPoint x="300" y="130" as="targetPoint"/>
                    </mxGeometry>
                </mxCell>
                <mxCell id="tRfl53h29Oq87ieM9Fut-20" value="&amp;lt;include&amp;gt;" style="rounded=0;whiteSpace=wrap;html=1;fillColor=#CCCCCC;strokeColor=none;strokeWidth=0;" parent="1" vertex="1">
                    <mxGeometry x="260" y="137.5" width="60" height="20" as="geometry"/>
                </mxCell>
                <mxCell id="94" value="" style="edgeStyle=none;html=1;exitX=0;exitY=0.5;exitDx=0;exitDy=0;entryX=1;entryY=0.5;entryDx=0;entryDy=0;dashed=1;endArrow=none;" parent="1" source="NdrQbTK8zsEzTxqzjizh-31" edge="1">
                    <mxGeometry relative="1" as="geometry">
                        <mxPoint x="505.00000000000057" y="1440" as="sourcePoint"/>
                        <mxPoint x="422.5" y="1419.9999999999998" as="targetPoint"/>
                    </mxGeometry>
                </mxCell>
                <mxCell id="99" value="" style="edgeStyle=none;html=1;exitX=0;exitY=0;exitDx=0;exitDy=0;entryX=1;entryY=1;entryDx=0;entryDy=0;dashed=1;endArrow=none;" parent="1" source="30" target="31" edge="1">
                    <mxGeometry relative="1" as="geometry">
                        <mxPoint x="428.8461782600805" y="807.535434095819" as="sourcePoint"/>
                        <mxPoint x="340.4833547341086" y="772.4425207616673" as="targetPoint"/>
                    </mxGeometry>
                </mxCell>
                <mxCell id="31" value="&amp;lt;include&amp;gt;" style="rounded=0;whiteSpace=wrap;html=1;fillColor=#CCCCCC;strokeWidth=0;strokeColor=none;" parent="1" vertex="1">
                    <mxGeometry x="350" y="780" width="60" height="20" as="geometry"/>
                </mxCell>
                <mxCell id="LPGJfSuWznseCfs-JJjP-135" value="&amp;lt;include&amp;gt;" style="rounded=0;whiteSpace=wrap;html=1;fillColor=#CCCCCC;strokeWidth=0;strokeColor=none;" parent="1" vertex="1">
                    <mxGeometry x="360" y="1030" width="60" height="20" as="geometry"/>
                </mxCell>
                <mxCell id="100" value="" style="edgeStyle=none;html=1;exitX=0;exitY=0.5;exitDx=0;exitDy=0;dashed=1;endArrow=none;" parent="1" source="19" target="27" edge="1">
                    <mxGeometry relative="1" as="geometry">
                        <mxPoint x="430.0000000000009" y="752.5" as="sourcePoint"/>
                        <mxPoint x="349.9733521253487" y="754.2549894145918" as="targetPoint"/>
                    </mxGeometry>
                </mxCell>
                <mxCell id="27" value="&amp;lt;include&amp;gt;" style="rounded=0;whiteSpace=wrap;html=1;fillColor=#CCCCCC;strokeWidth=0;strokeColor=none;" parent="1" vertex="1">
                    <mxGeometry x="370" y="740" width="60" height="20" as="geometry"/>
                </mxCell>
                <mxCell id="101" value="" style="edgeStyle=none;html=1;exitX=0.5;exitY=1;exitDx=0;exitDy=0;dashed=1;entryX=0.5;entryY=1;entryDx=0;entryDy=0;endArrow=none;" parent="1" source="kwJNHoxk6TTBNaTpvNkK-27" target="LPGJfSuWznseCfs-JJjP-87" edge="1">
                    <mxGeometry relative="1" as="geometry">
                        <mxPoint x="470" y="1250" as="sourcePoint"/>
                        <mxPoint x="470" y="1207.5" as="targetPoint"/>
                    </mxGeometry>
                </mxCell>
                <mxCell id="LPGJfSuWznseCfs-JJjP-87" value="&amp;lt;include&amp;gt;" style="rounded=0;whiteSpace=wrap;html=1;fillColor=#CCCCCC;strokeWidth=0;strokeColor=none;" parent="1" vertex="1">
                    <mxGeometry x="430" y="1220" width="60" height="20" as="geometry"/>
                </mxCell>
                <mxCell id="105" value="" style="edgeStyle=none;html=1;exitX=0.5;exitY=0;exitDx=0;exitDy=0;entryX=0.5;entryY=1;entryDx=0;entryDy=0;dashed=1;endArrow=none;" parent="1" source="44" target="46" edge="1">
                    <mxGeometry relative="1" as="geometry">
                        <mxPoint x="310" y="417.5" as="sourcePoint"/>
                        <mxPoint x="310" y="350" as="targetPoint"/>
                    </mxGeometry>
                </mxCell>
                <mxCell id="46" value="&amp;lt;include&amp;gt;" style="rounded=0;whiteSpace=wrap;html=1;fillColor=#CCCCCC;strokeColor=none;strokeWidth=0;" parent="1" vertex="1">
                    <mxGeometry x="280" y="380" width="60" height="20" as="geometry"/>
                </mxCell>
                <mxCell id="LPGJfSuWznseCfs-JJjP-134" value="&amp;lt;include&amp;gt;" style="rounded=0;whiteSpace=wrap;html=1;fillColor=#CCCCCC;strokeWidth=0;strokeColor=none;" parent="1" vertex="1">
                    <mxGeometry x="370" y="990" width="60" height="20" as="geometry"/>
                </mxCell>
                <mxCell id="bsd0rAXf4nlHfVmymFx9-106" value="" style="endArrow=classic;html=1;entryX=0;entryY=0.5;entryDx=0;entryDy=0;" parent="1" target="16" edge="1">
                    <mxGeometry width="50" height="50" relative="1" as="geometry">
                        <mxPoint x="50" y="560" as="sourcePoint"/>
                        <mxPoint x="80" y="230" as="targetPoint"/>
                        <Array as="points">
                            <mxPoint x="60" y="120"/>
                        </Array>
                    </mxGeometry>
                </mxCell>
                <mxCell id="io7VImCWaupe8tEtbzwR-108" style="edgeStyle=none;html=1;entryX=1;entryY=0.5;entryDx=0;entryDy=0;" parent="1" target="16" edge="1">
                    <mxGeometry relative="1" as="geometry">
                        <Array as="points">
                            <mxPoint x="985" y="90"/>
                        </Array>
                        <mxPoint x="985" y="690" as="sourcePoint"/>
                    </mxGeometry>
                </mxCell>
                <mxCell id="bsd0rAXf4nlHfVmymFx9-107" value="" style="endArrow=classic;html=1;entryX=0;entryY=0.5;entryDx=0;entryDy=0;" parent="1" target="3bklzfCK_-_vBuCAfFPz-20" edge="1">
                    <mxGeometry width="50" height="50" relative="1" as="geometry">
                        <mxPoint x="70" y="550" as="sourcePoint"/>
                        <mxPoint x="244.9999999999984" y="100" as="targetPoint"/>
                        <Array as="points">
                            <mxPoint x="100" y="230"/>
                        </Array>
                    </mxGeometry>
                </mxCell>
                <mxCell id="io7VImCWaupe8tEtbzwR-111" style="edgeStyle=none;html=1;entryX=1;entryY=0.5;entryDx=0;entryDy=0;" parent="1" target="3bklzfCK_-_vBuCAfFPz-19" edge="1">
                    <mxGeometry relative="1" as="geometry">
                        <Array as="points">
                            <mxPoint x="860" y="200"/>
                        </Array>
                        <mxPoint x="970" y="690" as="sourcePoint"/>
                    </mxGeometry>
                </mxCell>
                <mxCell id="bsd0rAXf4nlHfVmymFx9-111" value="" style="endArrow=classic;html=1;entryX=0;entryY=0.5;entryDx=0;entryDy=0;" parent="1" target="3bklzfCK_-_vBuCAfFPz-19" edge="1">
                    <mxGeometry width="50" height="50" relative="1" as="geometry">
                        <mxPoint x="60" y="550" as="sourcePoint"/>
                        <mxPoint x="254.9999999999984" y="110" as="targetPoint"/>
                        <Array as="points">
                            <mxPoint x="90" y="170"/>
                        </Array>
                    </mxGeometry>
                </mxCell>
                <mxCell id="io7VImCWaupe8tEtbzwR-112" style="edgeStyle=none;html=1;entryX=0.655;entryY=1.001;entryDx=0;entryDy=0;entryPerimeter=0;" parent="1" target="3bklzfCK_-_vBuCAfFPz-20" edge="1">
                    <mxGeometry relative="1" as="geometry">
                        <Array as="points">
                            <mxPoint x="720" y="310"/>
                        </Array>
                        <mxPoint x="960" y="700" as="sourcePoint"/>
                    </mxGeometry>
                </mxCell>
                <mxCell id="bsd0rAXf4nlHfVmymFx9-112" value="" style="endArrow=classic;html=1;entryX=0;entryY=0.5;entryDx=0;entryDy=0;" parent="1" target="tRfl53h29Oq87ieM9Fut-25" edge="1">
                    <mxGeometry width="50" height="50" relative="1" as="geometry">
                        <mxPoint x="79.99999999999989" y="560" as="sourcePoint"/>
                        <mxPoint x="254.99999999999773" y="207.5" as="targetPoint"/>
                        <Array as="points">
                            <mxPoint x="130" y="270"/>
                        </Array>
                    </mxGeometry>
                </mxCell>
                <mxCell id="io7VImCWaupe8tEtbzwR-113" style="edgeStyle=none;html=1;entryX=1;entryY=0.5;entryDx=0;entryDy=0;" parent="1" target="tRfl53h29Oq87ieM9Fut-25" edge="1">
                    <mxGeometry relative="1" as="geometry">
                        <mxPoint x="960" y="690" as="sourcePoint"/>
                        <Array as="points">
                            <mxPoint x="800" y="280"/>
                        </Array>
                    </mxGeometry>
                </mxCell>
                <mxCell id="bsd0rAXf4nlHfVmymFx9-113" value="" style="endArrow=classic;html=1;entryX=0;entryY=0.5;entryDx=0;entryDy=0;" parent="1" target="43" edge="1">
                    <mxGeometry width="50" height="50" relative="1" as="geometry">
                        <mxPoint x="80" y="570" as="sourcePoint"/>
                        <mxPoint x="370" y="440" as="targetPoint"/>
                        <Array as="points">
                            <mxPoint x="140" y="340"/>
                        </Array>
                    </mxGeometry>
                </mxCell>
                <mxCell id="bsd0rAXf4nlHfVmymFx9-115" value="" style="endArrow=classic;html=1;" parent="1" edge="1">
                    <mxGeometry width="50" height="50" relative="1" as="geometry">
                        <mxPoint x="90" y="600" as="sourcePoint"/>
                        <mxPoint x="260" y="440" as="targetPoint"/>
                        <Array as="points">
                            <mxPoint x="180" y="470"/>
                        </Array>
                    </mxGeometry>
                </mxCell>
                <mxCell id="bsd0rAXf4nlHfVmymFx9-117" value="" style="endArrow=classic;html=1;entryX=0;entryY=0.5;entryDx=0;entryDy=0;" parent="1" target="cIsgNL2QNmCeuLE6zkZ4-49" edge="1">
                    <mxGeometry width="50" height="50" relative="1" as="geometry">
                        <mxPoint x="60" y="690" as="sourcePoint"/>
                        <mxPoint x="370" y="870" as="targetPoint"/>
                        <Array as="points">
                            <mxPoint x="60" y="910"/>
                        </Array>
                    </mxGeometry>
                </mxCell>
                <mxCell id="bsd0rAXf4nlHfVmymFx9-118" value="" style="endArrow=classic;html=1;entryX=0;entryY=0.5;entryDx=0;entryDy=0;" parent="1" target="LPGJfSuWznseCfs-JJjP-102" edge="1">
                    <mxGeometry width="50" height="50" relative="1" as="geometry">
                        <mxPoint x="80" y="690" as="sourcePoint"/>
                        <mxPoint x="245" y="1026.2499999999998" as="targetPoint"/>
                        <Array as="points">
                            <mxPoint x="80" y="890"/>
                        </Array>
                    </mxGeometry>
                </mxCell>
                <mxCell id="bsd0rAXf4nlHfVmymFx9-119" value="" style="endArrow=classic;html=1;entryX=0;entryY=0;entryDx=0;entryDy=0;" parent="1" target="LPGJfSuWznseCfs-JJjP-101" edge="1">
                    <mxGeometry width="50" height="50" relative="1" as="geometry">
                        <mxPoint x="69.99999999999989" y="700" as="sourcePoint"/>
                        <mxPoint x="245" y="1026.2499999999998" as="targetPoint"/>
                        <Array as="points">
                            <mxPoint x="70" y="900"/>
                        </Array>
                    </mxGeometry>
                </mxCell>
                <mxCell id="io7VImCWaupe8tEtbzwR-118" style="edgeStyle=none;html=1;entryX=1;entryY=1;entryDx=0;entryDy=0;" parent="1" target="3bklzfCK_-_vBuCAfFPz-19" edge="1">
                    <mxGeometry relative="1" as="geometry">
                        <mxPoint x="1020" y="970" as="sourcePoint"/>
                        <mxPoint x="541.6991083298149" y="150.0364432001802" as="targetPoint"/>
                    </mxGeometry>
                </mxCell>
                <mxCell id="io7VImCWaupe8tEtbzwR-119" style="edgeStyle=none;html=1;entryX=1;entryY=1;entryDx=0;entryDy=0;" parent="1" edge="1">
                    <mxGeometry relative="1" as="geometry">
                        <Array as="points">
                            <mxPoint x="640" y="440"/>
                        </Array>
                        <mxPoint x="1000" y="970" as="sourcePoint"/>
                        <mxPoint x="326.5856596298893" y="216.81792951336843" as="targetPoint"/>
                    </mxGeometry>
                </mxCell>
                <mxCell id="bsd0rAXf4nlHfVmymFx9-121" value="" style="endArrow=classic;html=1;entryX=0;entryY=0.5;entryDx=0;entryDy=0;" parent="1" target="LPGJfSuWznseCfs-JJjP-71" edge="1">
                    <mxGeometry width="50" height="50" relative="1" as="geometry">
                        <mxPoint x="40" y="690" as="sourcePoint"/>
                        <mxPoint x="420" y="920" as="targetPoint"/>
                        <Array as="points">
                            <mxPoint x="40" y="1140"/>
                        </Array>
                    </mxGeometry>
                </mxCell>
                <mxCell id="io7VImCWaupe8tEtbzwR-121" style="edgeStyle=none;html=1;entryX=1;entryY=1;entryDx=0;entryDy=0;" parent="1" target="tRfl53h29Oq87ieM9Fut-25" edge="1">
                    <mxGeometry relative="1" as="geometry">
                        <mxPoint x="1010" y="970" as="sourcePoint"/>
                    </mxGeometry>
                </mxCell>
                <mxCell id="bsd0rAXf4nlHfVmymFx9-123" value="" style="endArrow=classic;html=1;entryX=0;entryY=0.5;entryDx=0;entryDy=0;" parent="1" target="35" edge="1">
                    <mxGeometry width="50" height="50" relative="1" as="geometry">
                        <mxPoint x="20" y="670" as="sourcePoint"/>
                        <mxPoint x="239.99999999999454" y="1422.815" as="targetPoint"/>
                        <Array as="points">
                            <mxPoint x="20" y="1520"/>
                        </Array>
                    </mxGeometry>
                </mxCell>
                <mxCell id="bsd0rAXf4nlHfVmymFx9-124" value="" style="endArrow=classic;html=1;entryX=0;entryY=0.5;entryDx=0;entryDy=0;" parent="1" target="NdrQbTK8zsEzTxqzjizh-31" edge="1">
                    <mxGeometry width="50" height="50" relative="1" as="geometry">
                        <mxPoint x="50" y="690" as="sourcePoint"/>
                        <mxPoint x="242.5" y="1525" as="targetPoint"/>
                        <Array as="points">
                            <mxPoint x="70" y="1450"/>
                        </Array>
                    </mxGeometry>
                </mxCell>
                <mxCell id="io7VImCWaupe8tEtbzwR-122" style="edgeStyle=none;html=1;entryX=1;entryY=1;entryDx=0;entryDy=0;" parent="1" target="50" edge="1">
                    <mxGeometry relative="1" as="geometry">
                        <mxPoint x="990" y="990" as="sourcePoint"/>
                    </mxGeometry>
                </mxCell>
                <mxCell id="bsd0rAXf4nlHfVmymFx9-125" value="" style="endArrow=classic;html=1;entryX=0;entryY=0.5;entryDx=0;entryDy=0;" parent="1" target="NdrQbTK8zsEzTxqzjizh-33" edge="1">
                    <mxGeometry width="50" height="50" relative="1" as="geometry">
                        <mxPoint x="100" y="690" as="sourcePoint"/>
                        <mxPoint x="150" y="1560" as="targetPoint"/>
                        <Array as="points">
                            <mxPoint x="90" y="1570"/>
                        </Array>
                    </mxGeometry>
                </mxCell>
                <mxCell id="bsd0rAXf4nlHfVmymFx9-126" value="" style="endArrow=classic;html=1;entryX=1;entryY=0.5;entryDx=0;entryDy=0;" parent="1" target="19" edge="1">
                    <mxGeometry width="50" height="50" relative="1" as="geometry">
                        <mxPoint x="960" y="720" as="sourcePoint"/>
                        <mxPoint x="440" y="660" as="targetPoint"/>
                    </mxGeometry>
                </mxCell>
                <mxCell id="bsd0rAXf4nlHfVmymFx9-127" value="" style="endArrow=classic;html=1;entryX=1;entryY=0.5;entryDx=0;entryDy=0;" parent="1" target="30" edge="1">
                    <mxGeometry width="50" height="50" relative="1" as="geometry">
                        <mxPoint x="960" y="740" as="sourcePoint"/>
                        <mxPoint x="550" y="762.5" as="targetPoint"/>
                    </mxGeometry>
                </mxCell>
                <mxCell id="io7VImCWaupe8tEtbzwR-123" style="edgeStyle=none;html=1;entryX=1;entryY=0;entryDx=0;entryDy=0;" parent="1" edge="1">
                    <mxGeometry relative="1" as="geometry">
                        <mxPoint x="950" y="712" as="sourcePoint"/>
                        <mxPoint x="332.67670359036515" y="739.4272396980848" as="targetPoint"/>
                        <Array as="points">
                            <mxPoint x="630" y="702"/>
                        </Array>
                    </mxGeometry>
                </mxCell>
                <mxCell id="io7VImCWaupe8tEtbzwR-124" style="edgeStyle=none;html=1;entryX=1;entryY=1;entryDx=0;entryDy=0;" parent="1" target="UXrXXBjXpSe41hVyBI7v-33" edge="1">
                    <mxGeometry relative="1" as="geometry">
                        <mxPoint x="960" y="750" as="sourcePoint"/>
                        <Array as="points">
                            <mxPoint x="670" y="858"/>
                        </Array>
                    </mxGeometry>
                </mxCell>
                <mxCell id="bsd0rAXf4nlHfVmymFx9-129" value="UC007: Forum and Post Drafts" style="ellipse;whiteSpace=wrap;html=1;" parent="1" vertex="1">
                    <mxGeometry x="380" y="340" width="120" height="55" as="geometry"/>
                </mxCell>
                <mxCell id="io7VImCWaupe8tEtbzwR-125" style="edgeStyle=none;html=1;entryX=0.972;entryY=0.256;entryDx=0;entryDy=0;entryPerimeter=0;" parent="1" target="kwJNHoxk6TTBNaTpvNkK-27" edge="1">
                    <mxGeometry relative="1" as="geometry">
                        <mxPoint x="1000" y="1030" as="sourcePoint"/>
                    </mxGeometry>
                </mxCell>
                <mxCell id="io7VImCWaupe8tEtbzwR-127" style="edgeStyle=none;html=1;entryX=1;entryY=0.5;entryDx=0;entryDy=0;" parent="1" target="kwJNHoxk6TTBNaTpvNkK-29" edge="1">
                    <mxGeometry relative="1" as="geometry">
                        <mxPoint x="960" y="790" as="sourcePoint"/>
                    </mxGeometry>
                </mxCell>
                <mxCell id="bsd0rAXf4nlHfVmymFx9-130" value="" style="endArrow=classic;html=1;entryX=0;entryY=0.5;entryDx=0;entryDy=0;" parent="1" target="bsd0rAXf4nlHfVmymFx9-129" edge="1">
                    <mxGeometry width="50" height="50" relative="1" as="geometry">
                        <mxPoint x="90" y="580" as="sourcePoint"/>
                        <mxPoint x="270" y="450" as="targetPoint"/>
                        <Array as="points">
                            <mxPoint x="160" y="450"/>
                        </Array>
                    </mxGeometry>
                </mxCell>
                <mxCell id="io7VImCWaupe8tEtbzwR-117" style="edgeStyle=none;html=1;entryX=1;entryY=0;entryDx=0;entryDy=0;" parent="1" target="16" edge="1">
                    <mxGeometry relative="1" as="geometry">
                        <mxPoint x="1025" y="970" as="sourcePoint"/>
                        <Array as="points">
                            <mxPoint x="1040" y="70"/>
                        </Array>
                    </mxGeometry>
                </mxCell>
                <mxCell id="io7VImCWaupe8tEtbzwR-128" style="edgeStyle=none;html=1;entryX=1;entryY=0.5;entryDx=0;entryDy=0;" parent="1" target="cIsgNL2QNmCeuLE6zkZ4-35" edge="1">
                    <mxGeometry relative="1" as="geometry">
                        <mxPoint x="950" y="700" as="sourcePoint"/>
                    </mxGeometry>
                </mxCell>
                <mxCell id="io7VImCWaupe8tEtbzwR-129" style="edgeStyle=none;html=1;entryX=1;entryY=0.5;entryDx=0;entryDy=0;" parent="1" target="UXrXXBjXpSe41hVyBI7v-42" edge="1">
                    <mxGeometry relative="1" as="geometry">
                        <mxPoint x="960" y="710" as="sourcePoint"/>
                    </mxGeometry>
                </mxCell>
                <mxCell id="io7VImCWaupe8tEtbzwR-132" style="edgeStyle=none;html=1;entryX=1;entryY=0.5;entryDx=0;entryDy=0;" parent="1" target="bsd0rAXf4nlHfVmymFx9-129" edge="1">
                    <mxGeometry relative="1" as="geometry">
                        <mxPoint x="990" y="980" as="sourcePoint"/>
                        <Array as="points">
                            <mxPoint x="640" y="500"/>
                        </Array>
                    </mxGeometry>
                </mxCell>
                <mxCell id="io7VImCWaupe8tEtbzwR-133" style="edgeStyle=none;html=1;entryX=1;entryY=0.5;entryDx=0;entryDy=0;" parent="1" target="LPGJfSuWznseCfs-JJjP-102" edge="1">
                    <mxGeometry relative="1" as="geometry">
                        <mxPoint x="990" y="1000" as="sourcePoint"/>
                    </mxGeometry>
                </mxCell>
                <mxCell id="io7VImCWaupe8tEtbzwR-135" style="edgeStyle=none;html=1;entryX=0.5;entryY=1;entryDx=0;entryDy=0;" parent="1" target="cIsgNL2QNmCeuLE6zkZ4-49" edge="1">
                    <mxGeometry relative="1" as="geometry">
                        <Array as="points">
                            <mxPoint x="570" y="1120"/>
                        </Array>
                        <mxPoint x="990" y="1020" as="sourcePoint"/>
                    </mxGeometry>
                </mxCell>
                <mxCell id="io7VImCWaupe8tEtbzwR-134" style="edgeStyle=none;html=1;entryX=1;entryY=0.5;entryDx=0;entryDy=0;" parent="1" target="LPGJfSuWznseCfs-JJjP-101" edge="1">
                    <mxGeometry relative="1" as="geometry">
                        <mxPoint x="980" y="1010" as="sourcePoint"/>
                    </mxGeometry>
                </mxCell>
                <mxCell id="tSZ_nWoEUUv1tOyuo0Gb-107" style="edgeStyle=none;html=1;entryX=1;entryY=0;entryDx=0;entryDy=0;" parent="1" target="NdrQbTK8zsEzTxqzjizh-31" edge="1">
                    <mxGeometry relative="1" as="geometry">
                        <mxPoint x="1000" y="1050" as="sourcePoint"/>
                        <Array as="points">
                            <mxPoint x="830" y="1290"/>
                        </Array>
                    </mxGeometry>
                </mxCell>
                <mxCell id="tSZ_nWoEUUv1tOyuo0Gb-108" style="edgeStyle=none;html=1;entryX=1;entryY=0;entryDx=0;entryDy=0;" parent="1" target="NdrQbTK8zsEzTxqzjizh-33" edge="1">
                    <mxGeometry relative="1" as="geometry">
                        <mxPoint x="1000" y="1060" as="sourcePoint"/>
                        <Array as="points">
                            <mxPoint x="850" y="1350"/>
                        </Array>
                    </mxGeometry>
                </mxCell>
                <mxCell id="tSZ_nWoEUUv1tOyuo0Gb-109" style="edgeStyle=none;html=1;exitX=0;exitY=1;exitDx=0;exitDy=0;exitPerimeter=0;entryX=1;entryY=0.5;entryDx=0;entryDy=0;" parent="1" source="10" target="35" edge="1">
                    <mxGeometry relative="1" as="geometry">
                        <Array as="points">
                            <mxPoint x="760" y="1610"/>
                            <mxPoint x="450" y="1610"/>
                        </Array>
                    </mxGeometry>
                </mxCell>
                <mxCell id="tSZ_nWoEUUv1tOyuo0Gb-110" style="edgeStyle=none;html=1;entryX=1;entryY=0;entryDx=0;entryDy=0;" parent="1" target="LPGJfSuWznseCfs-JJjP-102" edge="1">
                    <mxGeometry relative="1" as="geometry">
                        <mxPoint x="950" y="770" as="sourcePoint"/>
                    </mxGeometry>
                </mxCell>
                <mxCell id="tSZ_nWoEUUv1tOyuo0Gb-111" style="edgeStyle=none;html=1;entryX=0.706;entryY=0.043;entryDx=0;entryDy=0;entryPerimeter=0;" parent="1" target="kwJNHoxk6TTBNaTpvNkK-27" edge="1">
                    <mxGeometry relative="1" as="geometry">
                        <mxPoint x="950" y="780" as="sourcePoint"/>
                    </mxGeometry>
                </mxCell>
                <mxCell id="tSZ_nWoEUUv1tOyuo0Gb-112" style="edgeStyle=none;html=1;entryX=1;entryY=0;entryDx=0;entryDy=0;" parent="1" target="35" edge="1">
                    <mxGeometry relative="1" as="geometry">
                        <mxPoint x="960" y="800" as="sourcePoint"/>
                        <Array as="points">
                            <mxPoint x="670" y="1270"/>
                        </Array>
                    </mxGeometry>
                </mxCell>
                <mxCell id="tSZ_nWoEUUv1tOyuo0Gb-113" style="edgeStyle=none;html=1;entryX=1;entryY=0;entryDx=0;entryDy=0;" parent="1" target="LPGJfSuWznseCfs-JJjP-101" edge="1">
                    <mxGeometry relative="1" as="geometry">
                        <mxPoint x="940" y="780" as="sourcePoint"/>
                    </mxGeometry>
                </mxCell>
                <mxCell id="109" value="&lt;span id=&quot;docs-internal-guid-2df2812c-7fff-d0e8-8f27-13e273a5526e&quot;&gt;&lt;br&gt;&lt;p style=&quot;line-height: 1.8; margin-top: 0pt; margin-bottom: 0pt;&quot; dir=&quot;ltr&quot;&gt;&lt;span style=&quot;font-size: 20pt; font-family: Arial; color: rgb(31, 35, 40); background-color: rgb(255, 255, 255); font-variant-numeric: normal; font-variant-east-asian: normal; vertical-align: baseline;&quot;&gt;UTM Faculty of Computing Student Engagement System&lt;/span&gt;&lt;/p&gt;&lt;div&gt;&lt;span style=&quot;font-size: 20pt; font-family: Arial; color: rgb(31, 35, 40); background-color: rgb(255, 255, 255); font-variant-numeric: normal; font-variant-east-asian: normal; vertical-align: baseline;&quot;&gt;&lt;br&gt;&lt;/span&gt;&lt;/div&gt;&lt;/span&gt;" style="text;html=1;strokeColor=none;fillColor=none;align=center;verticalAlign=middle;whiteSpace=wrap;rounded=0;" parent="1" vertex="1">
                    <mxGeometry x="220" y="-70" width="350" height="100" as="geometry"/>
                </mxCell>
            </root>
        </mxGraphModel>
    </diagram>
</mxfile>